ffmpeg started on 2025-05-12 at 21:26:03
Report written to "D:\Convert\FFMetrics\reports\psnr_report-6.txt"
Log level: 32
Command line:
ffmpeg -hide_banner -nostdin -i "G:\\\xc0\xed\xe8\xec\xe5\\\xce\xed\xe3\xee\xe8\xed\xe3\xe8\\!_35_\xcb\xe5\xf2\xee_2024\\DreamCast-1\\\xd1\xe0\xec\xfb\xe9 \xf1\xe8\xeb\xfc\xed\xfb\xe9 \xe2\xee\xeb\xf8\xe5\xe1\xed\xe8\xea \xe0\xf0\xec\xe8\xe8 \xef\xee\xe2\xe5\xeb\xe8\xf2\xe5\xeb\xff \xe4\xe5\xec\xee\xed\xee\xe2 \xee\xea\xe0\xe7\xe0\xeb\xf1\xff \xf7\xe5\xeb\xee\xe2\xe5\xea\xee\xec\\DC_Maou_Gun_Saikyou_no_Majutsushi_wa_Ningen_datta_09_Telegram_HEVC.mkv" -i "G:\\\xc0\xed\xe8\xec\xe5\\\xce\xed\xe3\xee\xe8\xed\xe3\xe8\\!_35_\xcb\xe5\xf2\xee_2024\\DreamCast-1\\\xd1\xe0\xec\xfb\xe9 \xf1\xe8\xeb\xfc\xed\xfb\xe9 \xe2\xee\xeb\xf8\xe5\xe1\xed\xe8\xea \xe0\xf0\xec\xe8\xe8 \xef\xee\xe2\xe5\xeb\xe8\xf2\xe5\xeb\xff \xe4\xe5\xec\xee\xed\xee\xe2 \xee\xea\xe0\xe7\xe0\xeb\xf1\xff \xf7\xe5\xeb\xee\xe2\xe5\xea\xee\xec\\DC_Maou_Gun_Saikyou_no_Majutsushi_wa_Ningen_datta_09_Telegram.mp4" -lavfi "[0:v]settb=AVTB,setpts=PTS-STARTPTS,format=pix_fmts=yuv420p10,fps=24000/1001,scale=1920:1080:flags=bicubic[main];[1:v]settb=AVTB,setpts=PTS-STARTPTS,format=pix_fmts=yuv420p,fps=24000/1001,scale=1920:1080:flags=bicubic[ref];[main][ref]psnr=eof_action=endall:stats_file='D\\:/Convert/FFMetrics/logs/psnr_logfile-6.txt'" -f null -
Input #0, matroska,webm, from 'G:\Аниме\Онгоинги\!_35_Лето_2024\DreamCast-1\Самый сильный волшебник армии повелителя демонов оказался человеком\DC_Maou_Gun_Saikyou_no_Majutsushi_wa_Ningen_datta_09_Telegram_HEVC.mkv':
  Metadata:
    COMPATIBLE_BRANDS: isomiso2avc1mp41
    MAJOR_BRAND     : isom
    MINOR_VERSION   : 512
    ENCODER         : Lavf61.7.100
  Duration: 00:23:46.77, start: -0.021000, bitrate: 902 kb/s
  Stream #0:0: Video: hevc (Main 10), yuv420p10le(tv, bt709, progressive), 1920x1080 [SAR 1:1 DAR 16:9], 23.98 fps, 23.98 tbr, 1k tbn (default)
      Metadata:
        HANDLER_NAME    : VideoHandler
        VENDOR_ID       : [0][0][0][0]
        ENCODER         : Lavc61.19.100 libx265
        BPS             : 705406
        DURATION        : 00:23:46.633708333
        NUMBER_OF_FRAMES: 34205
        NUMBER_OF_BYTES : 125794553
        _STATISTICS_WRITING_APP: mkvpropedit v66.0.0 ('Josie') 64-bit
        _STATISTICS_WRITING_DATE_UTC: 2025-05-10 16:30:20
        _STATISTICS_TAGS: BPS DURATION NUMBER_OF_FRAMES NUMBER_OF_BYTES
  Stream #0:1: Audio: aac (LC), 48000 Hz, stereo, fltp (default)
      Metadata:
        HANDLER_NAME    : SoundHandler
        VENDOR_ID       : [0][0][0][0]
        ENCODER         : Lavc61.19.100 aac
        BPS             : 193289
        DURATION        : 00:23:46.773000000
        NUMBER_OF_FRAMES: 66881
        NUMBER_OF_BYTES : 34472483
        _STATISTICS_WRITING_APP: mkvpropedit v66.0.0 ('Josie') 64-bit
        _STATISTICS_WRITING_DATE_UTC: 2025-05-10 16:30:20
        _STATISTICS_TAGS: BPS DURATION NUMBER_OF_FRAMES NUMBER_OF_BYTES
Input #1, mov,mp4,m4a,3gp,3g2,mj2, from 'G:\Аниме\Онгоинги\!_35_Лето_2024\DreamCast-1\Самый сильный волшебник армии повелителя демонов оказался человеком\DC_Maou_Gun_Saikyou_no_Majutsushi_wa_Ningen_datta_09_Telegram.mp4':
  Metadata:
    major_brand     : isom
    minor_version   : 512
    compatible_brands: isomiso2avc1mp41
    encoder         : Lavf60.16.100
  Duration: 00:23:46.75, start: 0.000000, bitrate: 3385 kb/s
  Stream #1:0[0x1](und): Video: h264 (High) (avc1 / 0x31637661), yuv420p(tv, bt709, progressive), 1920x1080 [SAR 1:1 DAR 16:9], 3238 kb/s, 23.98 fps, 23.98 tbr, 24k tbn (default)
      Metadata:
        handler_name    : VideoHandler
        vendor_id       : [0][0][0][0]
        encoder         : Lavc60.31.102 h264_qsv
  Stream #1:1[0x2](und): Audio: aac (HE-AACv2) (mp4a / 0x6134706D), 48000 Hz, stereo, fltp, 144 kb/s (default)
      Metadata:
        handler_name    : SoundHandler
        vendor_id       : [0][0][0][0]
Stream mapping:
  Stream #0:0 (hevc) -> settb:default
  Stream #1:0 (h264) -> settb:default
  psnr:default -> Stream #0:0 (wrapped_avframe)
  Stream #0:1 -> #0:1 (aac (native) -> pcm_s16le (native))
Output #0, null, to 'pipe:':
  Metadata:
    COMPATIBLE_BRANDS: isomiso2avc1mp41
    MAJOR_BRAND     : isom
    MINOR_VERSION   : 512
    encoder         : Lavf61.7.100
  Stream #0:0: Video: wrapped_avframe, yuv420p10le(tv, bt709, progressive), 1920x1080 [SAR 1:1 DAR 16:9], q=2-31, 200 kb/s, 23.98 fps, 23.98 tbn
      Metadata:
        encoder         : Lavc61.19.100 wrapped_avframe
  Stream #0:1: Audio: pcm_s16le, 48000 Hz, stereo, s16, 1536 kb/s (default)
      Metadata:
        HANDLER_NAME    : SoundHandler
        VENDOR_ID       : [0][0][0][0]
        _STATISTICS_TAGS: BPS DURATION NUMBER_OF_FRAMES NUMBER_OF_BYTES
        BPS             : 193289
        DURATION        : 00:23:46.773000000
        NUMBER_OF_FRAMES: 66881
        NUMBER_OF_BYTES : 34472483
        _STATISTICS_WRITING_APP: mkvpropedit v66.0.0 ('Josie') 64-bit
        _STATISTICS_WRITING_DATE_UTC: 2025-05-10 16:30:20
        encoder         : Lavc61.19.100 pcm_s16le
frame=  162 fps=0.0 q=-0.0 size=N/A time=00:00:06.75 bitrate=N/A speed=13.3x    frame=  351 fps=341 q=-0.0 size=N/A time=00:00:14.63 bitrate=N/A speed=14.2x    frame=  619 fps=399 q=-0.0 size=N/A time=00:00:25.81 bitrate=N/A speed=16.6x    frame=  886 fps=431 q=-0.0 size=N/A time=00:00:36.95 bitrate=N/A speed=  18x    frame= 1167 fps=452 q=-0.0 size=N/A time=00:00:48.67 bitrate=N/A speed=18.9x    frame= 1438 fps=465 q=-0.0 size=N/A time=00:00:59.97 bitrate=N/A speed=19.4x    frame= 1714 fps=475 q=-0.0 size=N/A time=00:01:11.48 bitrate=N/A speed=19.8x    frame= 1997 fps=483 q=-0.0 size=N/A time=00:01:23.29 bitrate=N/A speed=20.2x    frame= 2275 fps=491 q=-0.0 size=N/A time=00:01:34.88 bitrate=N/A speed=20.5x    frame= 2517 fps=488 q=-0.0 size=N/A time=00:01:44.97 bitrate=N/A speed=20.3x    frame= 2723 fps=480 q=-0.0 size=N/A time=00:01:53.57 bitrate=N/A speed=  20x    frame= 2918 fps=471 q=-0.0 size=N/A time=00:02:01.70 bitrate=N/A speed=19.7x    frame= 3148 fps=469 q=-0.0 size=N/A time=00:02:11.29 bitrate=N/A speed=19.6x    frame= 3399 fps=470 q=-0.0 size=N/A time=00:02:21.76 bitrate=N/A speed=19.6x    frame= 3580 fps=463 q=-0.0 size=N/A time=00:02:29.31 bitrate=N/A speed=19.3x    frame= 3779 fps=458 q=-0.0 size=N/A time=00:02:37.61 bitrate=N/A speed=19.1x    frame= 3970 fps=453 q=-0.0 size=N/A time=00:02:45.58 bitrate=N/A speed=18.9x    frame= 4202 fps=452 q=-0.0 size=N/A time=00:02:55.25 bitrate=N/A speed=18.9x    frame= 4431 fps=452 q=-0.0 size=N/A time=00:03:04.80 bitrate=N/A speed=18.9x    frame= 4651 fps=451 q=-0.0 size=N/A time=00:03:13.98 bitrate=N/A speed=18.8x    frame= 4916 fps=454 q=-0.0 size=N/A time=00:03:25.03 bitrate=N/A speed=18.9x    frame= 5193 fps=458 q=-0.0 size=N/A time=00:03:36.59 bitrate=N/A speed=19.1x    frame= 5473 fps=461 q=-0.0 size=N/A time=00:03:48.26 bitrate=N/A speed=19.2x    frame= 5737 fps=464 q=-0.0 size=N/A time=00:03:59.28 bitrate=N/A speed=19.3x    frame= 6004 fps=466 q=-0.0 size=N/A time=00:04:10.41 bitrate=N/A speed=19.4x    frame= 6281 fps=468 q=-0.0 size=N/A time=00:04:21.97 bitrate=N/A speed=19.5x    frame= 6538 fps=469 q=-0.0 size=N/A time=00:04:32.68 bitrate=N/A speed=19.6x    frame= 6787 fps=470 q=-0.0 size=N/A time=00:04:43.07 bitrate=N/A speed=19.6x    frame= 7045 fps=471 q=-0.0 size=N/A time=00:04:53.83 bitrate=N/A speed=19.6x    frame= 7285 fps=471 q=-0.0 size=N/A time=00:05:03.84 bitrate=N/A speed=19.7x    frame= 7498 fps=469 q=-0.0 size=N/A time=00:05:12.72 bitrate=N/A speed=19.6x    frame= 7711 fps=467 q=-0.0 size=N/A time=00:05:21.61 bitrate=N/A speed=19.5x    frame= 7902 fps=465 q=-0.0 size=N/A time=00:05:29.57 bitrate=N/A speed=19.4x    frame= 8140 fps=464 q=-0.0 size=N/A time=00:05:39.50 bitrate=N/A speed=19.4x    frame= 8395 fps=465 q=-0.0 size=N/A time=00:05:50.14 bitrate=N/A speed=19.4x    frame= 8639 fps=465 q=-0.0 size=N/A time=00:06:00.31 bitrate=N/A speed=19.4x    frame= 8874 fps=465 q=-0.0 size=N/A time=00:06:10.11 bitrate=N/A speed=19.4x    frame= 9092 fps=464 q=-0.0 size=N/A time=00:06:19.21 bitrate=N/A speed=19.3x    frame= 9371 fps=466 q=-0.0 size=N/A time=00:06:30.84 bitrate=N/A speed=19.4x    frame= 9632 fps=467 q=-0.0 size=N/A time=00:06:41.73 bitrate=N/A speed=19.5x    frame= 9887 fps=467 q=-0.0 size=N/A time=00:06:52.37 bitrate=N/A speed=19.5x    frame=10069 fps=465 q=-0.0 size=N/A time=00:06:59.96 bitrate=N/A speed=19.4x    frame=10267 fps=463 q=-0.0 size=N/A time=00:07:08.21 bitrate=N/A speed=19.3x    frame=10484 fps=462 q=-0.0 size=N/A time=00:07:17.27 bitrate=N/A speed=19.3x    frame=10701 fps=461 q=-0.0 size=N/A time=00:07:26.32 bitrate=N/A speed=19.2x    frame=10948 fps=461 q=-0.0 size=N/A time=00:07:36.62 bitrate=N/A speed=19.2x    frame=11185 fps=461 q=-0.0 size=N/A time=00:07:46.50 bitrate=N/A speed=19.2x    frame=11426 fps=462 q=-0.0 size=N/A time=00:07:56.55 bitrate=N/A speed=19.2x    frame=11668 fps=462 q=-0.0 size=N/A time=00:08:06.65 bitrate=N/A speed=19.3x    frame=11921 fps=462 q=-0.0 size=N/A time=00:08:17.20 bitrate=N/A speed=19.3x    frame=12124 fps=461 q=-0.0 size=N/A time=00:08:25.67 bitrate=N/A speed=19.2x    frame=12358 fps=461 q=-0.0 size=N/A time=00:08:35.43 bitrate=N/A speed=19.2x    frame=12590 fps=460 q=-0.0 size=N/A time=00:08:45.10 bitrate=N/A speed=19.2x    frame=12807 fps=460 q=-0.0 size=N/A time=00:08:54.15 bitrate=N/A speed=19.2x    frame=13056 fps=460 q=-0.0 size=N/A time=00:09:04.54 bitrate=N/A speed=19.2x    frame=13317 fps=461 q=-0.0 size=N/A time=00:09:15.42 bitrate=N/A speed=19.2x    frame=13568 fps=461 q=-0.0 size=N/A time=00:09:25.89 bitrate=N/A speed=19.2x    frame=13807 fps=461 q=-0.0 size=N/A time=00:09:35.86 bitrate=N/A speed=19.2x    frame=14080 fps=462 q=-0.0 size=N/A time=00:09:47.25 bitrate=N/A speed=19.3x    frame=14341 fps=463 q=-0.0 size=N/A time=00:09:58.13 bitrate=N/A speed=19.3x    frame=14608 fps=464 q=-0.0 size=N/A time=00:10:09.27 bitrate=N/A speed=19.4x    frame=14880 fps=465 q=-0.0 size=N/A time=00:10:20.62 bitrate=N/A speed=19.4x    frame=15143 fps=466 q=-0.0 size=N/A time=00:10:31.58 bitrate=N/A speed=19.4x    frame=15357 fps=465 q=-0.0 size=N/A time=00:10:40.51 bitrate=N/A speed=19.4x    frame=15596 fps=465 q=-0.0 size=N/A time=00:10:50.48 bitrate=N/A speed=19.4x    frame=15864 fps=466 q=-0.0 size=N/A time=00:11:01.66 bitrate=N/A speed=19.4x    frame=16134 fps=467 q=-0.0 size=N/A time=00:11:12.92 bitrate=N/A speed=19.5x    frame=16407 fps=468 q=-0.0 size=N/A time=00:11:24.30 bitrate=N/A speed=19.5x    frame=16661 fps=468 q=-0.0 size=N/A time=00:11:34.90 bitrate=N/A speed=19.5x    frame=16912 fps=468 q=-0.0 size=N/A time=00:11:45.37 bitrate=N/A speed=19.5x    frame=17176 fps=469 q=-0.0 size=N/A time=00:11:56.38 bitrate=N/A speed=19.5x    frame=17437 fps=469 q=-0.0 size=N/A time=00:12:07.26 bitrate=N/A speed=19.6x    frame=17709 fps=470 q=-0.0 size=N/A time=00:12:18.61 bitrate=N/A speed=19.6x    frame=17960 fps=470 q=-0.0 size=N/A time=00:12:29.08 bitrate=N/A speed=19.6x    frame=18223 fps=471 q=-0.0 size=N/A time=00:12:40.05 bitrate=N/A speed=19.6x    frame=18481 fps=471 q=-0.0 size=N/A time=00:12:50.81 bitrate=N/A speed=19.7x    frame=18765 fps=472 q=-0.0 size=N/A time=00:13:02.65 bitrate=N/A speed=19.7x    frame=19025 fps=473 q=-0.0 size=N/A time=00:13:13.50 bitrate=N/A speed=19.7x    frame=19307 fps=474 q=-0.0 size=N/A time=00:13:25.26 bitrate=N/A speed=19.8x    frame=19579 fps=474 q=-0.0 size=N/A time=00:13:36.60 bitrate=N/A speed=19.8x    frame=19846 fps=475 q=-0.0 size=N/A time=00:13:47.74 bitrate=N/A speed=19.8x    frame=20114 fps=475 q=-0.0 size=N/A time=00:13:58.92 bitrate=N/A speed=19.8x    frame=20391 fps=476 q=-0.0 size=N/A time=00:14:10.47 bitrate=N/A speed=19.9x    frame=20639 fps=476 q=-0.0 size=N/A time=00:14:20.81 bitrate=N/A speed=19.9x    frame=20883 fps=476 q=-0.0 size=N/A time=00:14:30.99 bitrate=N/A speed=19.9x    frame=21148 fps=477 q=-0.0 size=N/A time=00:14:42.04 bitrate=N/A speed=19.9x    frame=21415 fps=477 q=-0.0 size=N/A time=00:14:53.18 bitrate=N/A speed=19.9x    frame=21681 fps=477 q=-0.0 size=N/A time=00:15:04.27 bitrate=N/A speed=19.9x    frame=21937 fps=478 q=-0.0 size=N/A time=00:15:14.95 bitrate=N/A speed=19.9x    frame=22207 fps=478 q=-0.0 size=N/A time=00:15:26.21 bitrate=N/A speed=19.9x    frame=22476 fps=479 q=-0.0 size=N/A time=00:15:37.43 bitrate=N/A speed=  20x    frame=22739 fps=479 q=-0.0 size=N/A time=00:15:48.40 bitrate=N/A speed=  20x    frame=23020 fps=480 q=-0.0 size=N/A time=00:16:00.12 bitrate=N/A speed=  20x    frame=23270 fps=480 q=-0.0 size=N/A time=00:16:10.55 bitrate=N/A speed=  20x    frame=23456 fps=479 q=-0.0 size=N/A time=00:16:18.31 bitrate=N/A speed=  20x    frame=23683 fps=478 q=-0.0 size=N/A time=00:16:27.77 bitrate=N/A speed=19.9x    frame=23904 fps=478 q=-0.0 size=N/A time=00:16:36.99 bitrate=N/A speed=19.9x    frame=24159 fps=478 q=-0.0 size=N/A time=00:16:47.63 bitrate=N/A speed=19.9x    frame=24380 fps=477 q=-0.0 size=N/A time=00:16:56.84 bitrate=N/A speed=19.9x    frame=24598 fps=477 q=-0.0 size=N/A time=00:17:05.94 bitrate=N/A speed=19.9x    frame=24824 fps=476 q=-0.0 size=N/A time=00:17:15.36 bitrate=N/A speed=19.9x    frame=25059 fps=476 q=-0.0 size=N/A time=00:17:25.16 bitrate=N/A speed=19.9x    frame=25246 fps=475 q=-0.0 size=N/A time=00:17:32.96 bitrate=N/A speed=19.8x    frame=25487 fps=475 q=-0.0 size=N/A time=00:17:43.02 bitrate=N/A speed=19.8x    frame=25730 fps=475 q=-0.0 size=N/A time=00:17:53.15 bitrate=N/A speed=19.8x    frame=25980 fps=475 q=-0.0 size=N/A time=00:18:03.58 bitrate=N/A speed=19.8x    frame=26213 fps=475 q=-0.0 size=N/A time=00:18:13.34 bitrate=N/A speed=19.8x    frame=26481 fps=475 q=-0.0 size=N/A time=00:18:24.47 bitrate=N/A speed=19.8x    frame=26743 fps=476 q=-0.0 size=N/A time=00:18:35.40 bitrate=N/A speed=19.8x    frame=26995 fps=476 q=-0.0 size=N/A time=00:18:45.91 bitrate=N/A speed=19.8x    frame=27235 fps=476 q=-0.0 size=N/A time=00:18:55.92 bitrate=N/A speed=19.8x    frame=27489 fps=476 q=-0.0 size=N/A time=00:19:06.52 bitrate=N/A speed=19.8x    frame=27756 fps=476 q=-0.0 size=N/A time=00:19:17.65 bitrate=N/A speed=19.9x    frame=28007 fps=476 q=-0.0 size=N/A time=00:19:28.12 bitrate=N/A speed=19.9x    frame=28270 fps=477 q=-0.0 size=N/A time=00:19:39.09 bitrate=N/A speed=19.9x    frame=28510 fps=476 q=-0.0 size=N/A time=00:19:49.10 bitrate=N/A speed=19.9x    frame=28779 fps=477 q=-0.0 size=N/A time=00:20:00.32 bitrate=N/A speed=19.9x    frame=29038 fps=477 q=-0.0 size=N/A time=00:20:11.12 bitrate=N/A speed=19.9x    frame=29270 fps=477 q=-0.0 size=N/A time=00:20:20.80 bitrate=N/A speed=19.9x    frame=29499 fps=476 q=-0.0 size=N/A time=00:20:30.35 bitrate=N/A speed=19.9x    frame=29739 fps=476 q=-0.0 size=N/A time=00:20:40.36 bitrate=N/A speed=19.9x    frame=29956 fps=476 q=-0.0 size=N/A time=00:20:49.41 bitrate=N/A speed=19.9x    frame=30195 fps=476 q=-0.0 size=N/A time=00:20:59.38 bitrate=N/A speed=19.8x    frame=30458 fps=476 q=-0.0 size=N/A time=00:21:10.35 bitrate=N/A speed=19.9x    frame=30714 fps=476 q=-0.0 size=N/A time=00:21:21.07 bitrate=N/A speed=19.9x    frame=30981 fps=477 q=-0.0 size=N/A time=00:21:32.16 bitrate=N/A speed=19.9x    frame=31207 fps=476 q=-0.0 size=N/A time=00:21:41.59 bitrate=N/A speed=19.9x    frame=31436 fps=476 q=-0.0 size=N/A time=00:21:51.14 bitrate=N/A speed=19.9x    frame=31624 fps=475 q=-0.0 size=N/A time=00:21:58.98 bitrate=N/A speed=19.8x    frame=31802 fps=474 q=-0.0 size=N/A time=00:22:06.40 bitrate=N/A speed=19.8x    frame=31991 fps=473 q=-0.0 size=N/A time=00:22:14.29 bitrate=N/A speed=19.7x    frame=32155 fps=472 q=-0.0 size=N/A time=00:22:21.13 bitrate=N/A speed=19.7x    frame=32345 fps=471 q=-0.0 size=N/A time=00:22:29.05 bitrate=N/A speed=19.7x    frame=32532 fps=470 q=-0.0 size=N/A time=00:22:36.85 bitrate=N/A speed=19.6x    frame=32701 fps=469 q=-0.0 size=N/A time=00:22:43.90 bitrate=N/A speed=19.6x    frame=32875 fps=468 q=-0.0 size=N/A time=00:22:51.16 bitrate=N/A speed=19.5x    frame=33044 fps=467 q=-0.0 size=N/A time=00:22:58.21 bitrate=N/A speed=19.5x    frame=33220 fps=467 q=-0.0 size=N/A time=00:23:05.55 bitrate=N/A speed=19.5x    frame=33395 fps=466 q=-0.0 size=N/A time=00:23:12.84 bitrate=N/A speed=19.4x    frame=33552 fps=464 q=-0.0 size=N/A time=00:23:19.39 bitrate=N/A speed=19.4x    frame=33724 fps=464 q=-0.0 size=N/A time=00:23:26.57 bitrate=N/A speed=19.3x    frame=33909 fps=463 q=-0.0 size=N/A time=00:23:34.28 bitrate=N/A speed=19.3x    frame=34107 fps=462 q=-0.0 size=N/A time=00:23:42.54 bitrate=N/A speed=19.3x    [Parsed_psnr_10 @ 000002daf764ee40] PSNR y:49.796522 u:50.058713 v:50.272990 average:49.915760 min:40.881685 max:inf
[out#0/null @ 000002daea945f00] video:14697KiB audio:267524KiB subtitle:0KiB other streams:0KiB global headers:0KiB muxing overhead: unknown
frame=34205 fps=462 q=-0.0 Lsize=N/A time=00:23:46.63 bitrate=N/A speed=19.3x    
